<mxfile host="app.diagrams.net" agent="Mozilla/5.0 (Windows NT 10.0; Win64; x64) AppleWebKit/537.36 (KHTML, like Gecko) Chrome/130.0.0.0 Safari/537.36" version="24.8.4">
  <diagram name="第 1 页" id="-2KWgbT9fdik0QkIeiRn">
    <mxGraphModel dx="875" dy="544" grid="0" gridSize="10" guides="1" tooltips="1" connect="1" arrows="1" fold="1" page="1" pageScale="1" pageWidth="827" pageHeight="1169" math="0" shadow="0">
      <root>
        <mxCell id="0" />
        <mxCell id="1" parent="0" />
        <mxCell id="JlN7DXZQlxJKehoTxWIZ-80" value="" style="rounded=0;whiteSpace=wrap;html=1;dashed=1;" vertex="1" parent="1">
          <mxGeometry x="223" y="116" width="465" height="685" as="geometry" />
        </mxCell>
        <mxCell id="JlN7DXZQlxJKehoTxWIZ-1" value="&lt;font size=&quot;1&quot; color=&quot;#000000&quot;&gt;&lt;span style=&quot;font-size: 19px;&quot;&gt;教学环节&lt;/span&gt;&lt;/font&gt;" style="rounded=1;whiteSpace=wrap;html=1;fillColor=#36b0ec;fontColor=#ffffff;strokeColor=#000000;" vertex="1" parent="1">
          <mxGeometry x="140" y="71" width="80" height="40" as="geometry" />
        </mxCell>
        <mxCell id="JlN7DXZQlxJKehoTxWIZ-2" value="&lt;font size=&quot;1&quot; color=&quot;#000000&quot;&gt;&lt;span style=&quot;font-size: 19px;&quot;&gt;学生活动&lt;/span&gt;&lt;/font&gt;" style="rounded=1;whiteSpace=wrap;html=1;fillColor=#36b0ec;fontColor=#ffffff;strokeColor=#000000;" vertex="1" parent="1">
          <mxGeometry x="240" y="71" width="200" height="40" as="geometry" />
        </mxCell>
        <mxCell id="JlN7DXZQlxJKehoTxWIZ-3" value="&lt;font size=&quot;1&quot; color=&quot;#000000&quot;&gt;&lt;span style=&quot;font-size: 19px;&quot;&gt;教师活动&lt;/span&gt;&lt;/font&gt;" style="rounded=1;whiteSpace=wrap;html=1;fillColor=#36b0ec;fontColor=#ffffff;strokeColor=#000000;" vertex="1" parent="1">
          <mxGeometry x="480" y="71" width="200" height="40" as="geometry" />
        </mxCell>
        <mxCell id="JlN7DXZQlxJKehoTxWIZ-5" value="&lt;font style=&quot;font-size: 16px;&quot;&gt;&lt;b style=&quot;&quot;&gt;学前&lt;/b&gt;&lt;/font&gt;&lt;div style=&quot;font-size: 16px;&quot;&gt;&lt;font style=&quot;font-size: 16px;&quot;&gt;&lt;b style=&quot;&quot;&gt;准备&lt;/b&gt;&lt;/font&gt;&lt;/div&gt;" style="rounded=0;whiteSpace=wrap;html=1;fillColor=#e57373;strokeColor=none;" vertex="1" parent="1">
          <mxGeometry x="152" y="120" width="56" height="60" as="geometry" />
        </mxCell>
        <mxCell id="JlN7DXZQlxJKehoTxWIZ-6" value="&lt;span style=&quot;font-size: 16px;&quot;&gt;&lt;b&gt;课前&lt;/b&gt;&lt;/span&gt;&lt;div&gt;&lt;span style=&quot;font-size: 16px;&quot;&gt;&lt;b&gt;探究&lt;/b&gt;&lt;/span&gt;&lt;/div&gt;" style="rounded=0;whiteSpace=wrap;html=1;fillColor=#ffb74d;strokeColor=none;" vertex="1" parent="1">
          <mxGeometry x="148" y="220" width="60" height="160" as="geometry" />
        </mxCell>
        <mxCell id="JlN7DXZQlxJKehoTxWIZ-7" value="&lt;span style=&quot;font-size: 16px;&quot;&gt;&lt;b&gt;课中&lt;/b&gt;&lt;/span&gt;&lt;div&gt;&lt;span style=&quot;font-size: 16px;&quot;&gt;&lt;b&gt;教学&lt;/b&gt;&lt;/span&gt;&lt;/div&gt;" style="rounded=0;whiteSpace=wrap;html=1;fillColor=#fff176;strokeColor=none;" vertex="1" parent="1">
          <mxGeometry x="148" y="419" width="60" height="160" as="geometry" />
        </mxCell>
        <mxCell id="JlN7DXZQlxJKehoTxWIZ-8" value="&lt;span style=&quot;font-size: 16px;&quot;&gt;&lt;b&gt;课后&lt;/b&gt;&lt;/span&gt;&lt;div&gt;&lt;span style=&quot;font-size: 16px;&quot;&gt;&lt;b&gt;拓展&lt;/b&gt;&lt;/span&gt;&lt;/div&gt;" style="rounded=0;whiteSpace=wrap;html=1;fillColor=#81c784;strokeColor=none;" vertex="1" parent="1">
          <mxGeometry x="150" y="619" width="60" height="170" as="geometry" />
        </mxCell>
        <mxCell id="JlN7DXZQlxJKehoTxWIZ-10" value="" style="rounded=1;whiteSpace=wrap;html=1;fillColor=#f8cecc;strokeColor=#4D4D4D;dashed=1;" vertex="1" parent="1">
          <mxGeometry x="240" y="121" width="200" height="60" as="geometry" />
        </mxCell>
        <mxCell id="JlN7DXZQlxJKehoTxWIZ-11" value="" style="rounded=1;whiteSpace=wrap;html=1;fillColor=#f8cecc;strokeColor=#4D4D4D;dashed=1;" vertex="1" parent="1">
          <mxGeometry x="480" y="121" width="200" height="60" as="geometry" />
        </mxCell>
        <mxCell id="JlN7DXZQlxJKehoTxWIZ-12" value="知识图谱导读" style="rounded=0;whiteSpace=wrap;html=1;strokeWidth=1;strokeColor=#4D4D4D;" vertex="1" parent="1">
          <mxGeometry x="279" y="127" width="120" height="20" as="geometry" />
        </mxCell>
        <mxCell id="JlN7DXZQlxJKehoTxWIZ-13" value="完成学习者个性测验" style="rounded=0;whiteSpace=wrap;html=1;strokeWidth=1;strokeColor=#4D4D4D;" vertex="1" parent="1">
          <mxGeometry x="279" y="156" width="120" height="20" as="geometry" />
        </mxCell>
        <mxCell id="JlN7DXZQlxJKehoTxWIZ-14" value="形成学习者画像" style="rounded=0;whiteSpace=wrap;html=1;strokeWidth=1;strokeColor=#4D4D4D;" vertex="1" parent="1">
          <mxGeometry x="520" y="127" width="120" height="20" as="geometry" />
        </mxCell>
        <mxCell id="JlN7DXZQlxJKehoTxWIZ-15" value="AI辅助教学资源准备" style="rounded=0;whiteSpace=wrap;html=1;strokeWidth=1;strokeColor=#4D4D4D;" vertex="1" parent="1">
          <mxGeometry x="520" y="156" width="120" height="20" as="geometry" />
        </mxCell>
        <mxCell id="JlN7DXZQlxJKehoTxWIZ-18" value="" style="rounded=1;whiteSpace=wrap;html=1;fillColor=#ffe6cc;strokeColor=#d79b00;dashed=1;" vertex="1" parent="1">
          <mxGeometry x="239" y="220" width="200" height="160" as="geometry" />
        </mxCell>
        <mxCell id="JlN7DXZQlxJKehoTxWIZ-19" value="知识点导读" style="rounded=0;whiteSpace=wrap;html=1;strokeColor=#4D4D4D;" vertex="1" parent="1">
          <mxGeometry x="260" y="260" width="80" height="20" as="geometry" />
        </mxCell>
        <mxCell id="JlN7DXZQlxJKehoTxWIZ-20" value="观看微课视频" style="rounded=0;whiteSpace=wrap;html=1;strokeColor=#4D4D4D;" vertex="1" parent="1">
          <mxGeometry x="350" y="260" width="80" height="20" as="geometry" />
        </mxCell>
        <mxCell id="JlN7DXZQlxJKehoTxWIZ-21" value="查阅资源案例初探" style="rounded=0;whiteSpace=wrap;html=1;strokeColor=#4D4D4D;" vertex="1" parent="1">
          <mxGeometry x="270" y="290" width="146" height="20" as="geometry" />
        </mxCell>
        <mxCell id="JlN7DXZQlxJKehoTxWIZ-22" value="提问在线讨论" style="rounded=0;whiteSpace=wrap;html=1;strokeColor=#4D4D4D;" vertex="1" parent="1">
          <mxGeometry x="260" y="320" width="80" height="20" as="geometry" />
        </mxCell>
        <mxCell id="JlN7DXZQlxJKehoTxWIZ-24" value="完成课前测" style="rounded=0;whiteSpace=wrap;html=1;strokeColor=#4D4D4D;" vertex="1" parent="1">
          <mxGeometry x="350" y="320" width="80" height="20" as="geometry" />
        </mxCell>
        <mxCell id="JlN7DXZQlxJKehoTxWIZ-25" value="使用AI助力课前设计辅助" style="rounded=0;whiteSpace=wrap;html=1;strokeColor=#4D4D4D;" vertex="1" parent="1">
          <mxGeometry x="270" y="350" width="146" height="20" as="geometry" />
        </mxCell>
        <mxCell id="JlN7DXZQlxJKehoTxWIZ-26" value="" style="rounded=1;whiteSpace=wrap;html=1;fillColor=#ffe6cc;strokeColor=#d79b00;dashed=1;" vertex="1" parent="1">
          <mxGeometry x="480" y="220" width="200" height="160" as="geometry" />
        </mxCell>
        <mxCell id="JlN7DXZQlxJKehoTxWIZ-27" value="学习计划" style="rounded=0;whiteSpace=wrap;html=1;strokeColor=#4D4D4D;" vertex="1" parent="1">
          <mxGeometry x="500" y="290" width="80" height="20" as="geometry" />
        </mxCell>
        <mxCell id="JlN7DXZQlxJKehoTxWIZ-28" value="AI辅助整理测试信息" style="rounded=0;whiteSpace=wrap;html=1;strokeColor=#4D4D4D;" vertex="1" parent="1">
          <mxGeometry x="500" y="320" width="170" height="20" as="geometry" />
        </mxCell>
        <mxCell id="JlN7DXZQlxJKehoTxWIZ-29" value="据画像推送个性化学习内容" style="rounded=0;whiteSpace=wrap;html=1;strokeColor=#4D4D4D;" vertex="1" parent="1">
          <mxGeometry x="500" y="260" width="160" height="20" as="geometry" />
        </mxCell>
        <mxCell id="JlN7DXZQlxJKehoTxWIZ-30" value="确定课程内容" style="rounded=0;whiteSpace=wrap;html=1;strokeColor=#4D4D4D;" vertex="1" parent="1">
          <mxGeometry x="590" y="290" width="80" height="20" as="geometry" />
        </mxCell>
        <mxCell id="JlN7DXZQlxJKehoTxWIZ-31" value="创设情景案例" style="rounded=0;whiteSpace=wrap;html=1;strokeColor=#4D4D4D;" vertex="1" parent="1">
          <mxGeometry x="545" y="350" width="80" height="20" as="geometry" />
        </mxCell>
        <mxCell id="JlN7DXZQlxJKehoTxWIZ-33" value="&lt;b style=&quot;&quot;&gt;&lt;font style=&quot;font-size: 14px;&quot;&gt;学生自主学习&lt;/font&gt;&lt;/b&gt;" style="rounded=0;whiteSpace=wrap;html=1;fillColor=#ffb74d;strokeColor=#4D4D4D;" vertex="1" parent="1">
          <mxGeometry x="270" y="230" width="140" height="20" as="geometry" />
        </mxCell>
        <mxCell id="JlN7DXZQlxJKehoTxWIZ-34" value="&lt;b style=&quot;&quot;&gt;&lt;font style=&quot;font-size: 14px;&quot;&gt;教师教学设计&lt;/font&gt;&lt;/b&gt;" style="rounded=0;whiteSpace=wrap;html=1;fillColor=#ffb74d;strokeColor=#4D4D4D;" vertex="1" parent="1">
          <mxGeometry x="515" y="230" width="140" height="20" as="geometry" />
        </mxCell>
        <mxCell id="JlN7DXZQlxJKehoTxWIZ-35" value="" style="rounded=1;whiteSpace=wrap;html=1;fillColor=#fff2cc;strokeColor=#d6b656;dashed=1;" vertex="1" parent="1">
          <mxGeometry x="239" y="419" width="200" height="160" as="geometry" />
        </mxCell>
        <mxCell id="JlN7DXZQlxJKehoTxWIZ-36" value="课程单元讲解" style="rounded=0;whiteSpace=wrap;html=1;strokeColor=#4D4D4D;" vertex="1" parent="1">
          <mxGeometry x="260" y="459" width="80" height="20" as="geometry" />
        </mxCell>
        <mxCell id="JlN7DXZQlxJKehoTxWIZ-37" value="教学演示（VR沉浸式教学）" style="rounded=0;whiteSpace=wrap;html=1;strokeColor=#4D4D4D;" vertex="1" parent="1">
          <mxGeometry x="260" y="489" width="170" height="20" as="geometry" />
        </mxCell>
        <mxCell id="JlN7DXZQlxJKehoTxWIZ-38" value="分组谈论协作" style="rounded=0;whiteSpace=wrap;html=1;strokeColor=#4D4D4D;" vertex="1" parent="1">
          <mxGeometry x="350" y="459" width="80" height="20" as="geometry" />
        </mxCell>
        <mxCell id="JlN7DXZQlxJKehoTxWIZ-39" value="跨领域知识拓展" style="rounded=0;whiteSpace=wrap;html=1;strokeColor=#4D4D4D;" vertex="1" parent="1">
          <mxGeometry x="259" y="519" width="90" height="20" as="geometry" />
        </mxCell>
        <mxCell id="JlN7DXZQlxJKehoTxWIZ-40" value="快题任务" style="rounded=0;whiteSpace=wrap;html=1;strokeColor=#4D4D4D;" vertex="1" parent="1">
          <mxGeometry x="353" y="519" width="80" height="20" as="geometry" />
        </mxCell>
        <mxCell id="JlN7DXZQlxJKehoTxWIZ-41" value="临摹学习——项目导入" style="rounded=0;whiteSpace=wrap;html=1;strokeColor=#4D4D4D;" vertex="1" parent="1">
          <mxGeometry x="270" y="549" width="146" height="20" as="geometry" />
        </mxCell>
        <mxCell id="JlN7DXZQlxJKehoTxWIZ-42" value="" style="rounded=1;whiteSpace=wrap;html=1;fillColor=#fff2cc;strokeColor=#d6b656;dashed=1;" vertex="1" parent="1">
          <mxGeometry x="480" y="419" width="200" height="160" as="geometry" />
        </mxCell>
        <mxCell id="JlN7DXZQlxJKehoTxWIZ-43" value="VR演示" style="rounded=0;whiteSpace=wrap;html=1;strokeColor=#4D4D4D;" vertex="1" parent="1">
          <mxGeometry x="500" y="489" width="80" height="20" as="geometry" />
        </mxCell>
        <mxCell id="JlN7DXZQlxJKehoTxWIZ-44" value="AI使用指导与解释" style="rounded=0;whiteSpace=wrap;html=1;strokeColor=#4D4D4D;" vertex="1" parent="1">
          <mxGeometry x="500" y="519" width="170" height="20" as="geometry" />
        </mxCell>
        <mxCell id="JlN7DXZQlxJKehoTxWIZ-45" value="案例情景导入" style="rounded=0;whiteSpace=wrap;html=1;strokeColor=#4D4D4D;" vertex="1" parent="1">
          <mxGeometry x="500" y="459" width="160" height="20" as="geometry" />
        </mxCell>
        <mxCell id="JlN7DXZQlxJKehoTxWIZ-46" value="智能问答系统" style="rounded=0;whiteSpace=wrap;html=1;strokeColor=#4D4D4D;" vertex="1" parent="1">
          <mxGeometry x="590" y="489" width="80" height="20" as="geometry" />
        </mxCell>
        <mxCell id="JlN7DXZQlxJKehoTxWIZ-48" value="&lt;b style=&quot;&quot;&gt;&lt;font style=&quot;font-size: 14px;&quot;&gt;学生深度学习&lt;/font&gt;&lt;/b&gt;" style="rounded=0;whiteSpace=wrap;html=1;fillColor=#FFF176;strokeColor=#4D4D4D;" vertex="1" parent="1">
          <mxGeometry x="270" y="429" width="140" height="20" as="geometry" />
        </mxCell>
        <mxCell id="JlN7DXZQlxJKehoTxWIZ-49" value="&lt;b style=&quot;&quot;&gt;&lt;font style=&quot;font-size: 14px;&quot;&gt;教师课堂组织&lt;/font&gt;&lt;/b&gt;" style="rounded=0;whiteSpace=wrap;html=1;fillColor=#FFF176;strokeColor=#4D4D4D;" vertex="1" parent="1">
          <mxGeometry x="515" y="429" width="140" height="20" as="geometry" />
        </mxCell>
        <mxCell id="JlN7DXZQlxJKehoTxWIZ-50" value="" style="rounded=1;whiteSpace=wrap;html=1;fillColor=#d5e8d4;strokeColor=#82b366;dashed=1;" vertex="1" parent="1">
          <mxGeometry x="240" y="619" width="200" height="170" as="geometry" />
        </mxCell>
        <mxCell id="JlN7DXZQlxJKehoTxWIZ-51" value="完成章节自测" style="rounded=0;whiteSpace=wrap;html=1;strokeColor=#4D4D4D;" vertex="1" parent="1">
          <mxGeometry x="250" y="659" width="80" height="20" as="geometry" />
        </mxCell>
        <mxCell id="JlN7DXZQlxJKehoTxWIZ-52" value="提交项目实例方案" style="rounded=0;whiteSpace=wrap;html=1;strokeColor=#4D4D4D;" vertex="1" parent="1">
          <mxGeometry x="334.5" y="689" width="100" height="20" as="geometry" />
        </mxCell>
        <mxCell id="JlN7DXZQlxJKehoTxWIZ-53" value="个性化知识点巩固" style="rounded=0;whiteSpace=wrap;html=1;strokeColor=#4D4D4D;" vertex="1" parent="1">
          <mxGeometry x="336" y="659" width="100" height="20" as="geometry" />
        </mxCell>
        <mxCell id="JlN7DXZQlxJKehoTxWIZ-54" value="师生互动讨论" style="rounded=0;whiteSpace=wrap;html=1;strokeColor=#4D4D4D;" vertex="1" parent="1">
          <mxGeometry x="256" y="719" width="76" height="20" as="geometry" />
        </mxCell>
        <mxCell id="JlN7DXZQlxJKehoTxWIZ-55" value="调整学习路径" style="rounded=0;whiteSpace=wrap;html=1;strokeColor=#4D4D4D;" vertex="1" parent="1">
          <mxGeometry x="338.5" y="719" width="90" height="20" as="geometry" />
        </mxCell>
        <mxCell id="JlN7DXZQlxJKehoTxWIZ-56" value="使用AI工具" style="rounded=0;whiteSpace=wrap;html=1;strokeColor=#4D4D4D;" vertex="1" parent="1">
          <mxGeometry x="254.5" y="749" width="79" height="20" as="geometry" />
        </mxCell>
        <mxCell id="JlN7DXZQlxJKehoTxWIZ-57" value="" style="rounded=1;whiteSpace=wrap;html=1;fillColor=#d5e8d4;strokeColor=#82b366;dashed=1;" vertex="1" parent="1">
          <mxGeometry x="481" y="619" width="200" height="170" as="geometry" />
        </mxCell>
        <mxCell id="JlN7DXZQlxJKehoTxWIZ-58" value="推送个性化知识点巩固" style="rounded=0;whiteSpace=wrap;html=1;strokeColor=#4D4D4D;" vertex="1" parent="1">
          <mxGeometry x="515" y="687" width="139" height="20" as="geometry" />
        </mxCell>
        <mxCell id="JlN7DXZQlxJKehoTxWIZ-59" value="AR辅助进一步构建知识图谱" style="rounded=0;whiteSpace=wrap;html=1;strokeColor=#4D4D4D;" vertex="1" parent="1">
          <mxGeometry x="503.75" y="714" width="163.25" height="20" as="geometry" />
        </mxCell>
        <mxCell id="JlN7DXZQlxJKehoTxWIZ-60" value="与前测对比" style="rounded=0;whiteSpace=wrap;html=1;strokeColor=#4D4D4D;" vertex="1" parent="1">
          <mxGeometry x="501" y="659" width="79" height="20" as="geometry" />
        </mxCell>
        <mxCell id="JlN7DXZQlxJKehoTxWIZ-61" value="在线答疑解惑" style="rounded=0;whiteSpace=wrap;html=1;strokeColor=#4D4D4D;" vertex="1" parent="1">
          <mxGeometry x="591" y="659" width="80" height="20" as="geometry" />
        </mxCell>
        <mxCell id="JlN7DXZQlxJKehoTxWIZ-62" value="&lt;b style=&quot;&quot;&gt;&lt;font style=&quot;font-size: 14px;&quot;&gt;学生泛在学习&lt;/font&gt;&lt;/b&gt;" style="rounded=0;whiteSpace=wrap;html=1;fillColor=#81C784;strokeColor=#4D4D4D;" vertex="1" parent="1">
          <mxGeometry x="271" y="629" width="140" height="20" as="geometry" />
        </mxCell>
        <mxCell id="JlN7DXZQlxJKehoTxWIZ-63" value="&lt;b style=&quot;&quot;&gt;&lt;font style=&quot;font-size: 14px;&quot;&gt;教师分析评价&lt;/font&gt;&lt;/b&gt;" style="rounded=0;whiteSpace=wrap;html=1;fillColor=#81C784;strokeColor=#4D4D4D;" vertex="1" parent="1">
          <mxGeometry x="516" y="629" width="140" height="20" as="geometry" />
        </mxCell>
        <mxCell id="JlN7DXZQlxJKehoTxWIZ-64" value="完成自我评价" style="rounded=0;whiteSpace=wrap;html=1;strokeColor=#4D4D4D;" vertex="1" parent="1">
          <mxGeometry x="340" y="749" width="80" height="20" as="geometry" />
        </mxCell>
        <mxCell id="JlN7DXZQlxJKehoTxWIZ-65" value="AR线上实验" style="rounded=0;whiteSpace=wrap;html=1;strokeColor=#4D4D4D;" vertex="1" parent="1">
          <mxGeometry x="250" y="689" width="79" height="20" as="geometry" />
        </mxCell>
        <mxCell id="JlN7DXZQlxJKehoTxWIZ-66" value="调整教学过程" style="rounded=0;whiteSpace=wrap;html=1;strokeColor=#4D4D4D;" vertex="1" parent="1">
          <mxGeometry x="536.22" y="739" width="89.57" height="20" as="geometry" />
        </mxCell>
        <mxCell id="JlN7DXZQlxJKehoTxWIZ-67" value="导入AI完成多元评价与预警" style="rounded=0;whiteSpace=wrap;html=1;strokeColor=#4D4D4D;" vertex="1" parent="1">
          <mxGeometry x="504.25" y="764" width="155.75" height="20" as="geometry" />
        </mxCell>
        <mxCell id="JlN7DXZQlxJKehoTxWIZ-69" value="" style="shape=singleArrow;direction=south;whiteSpace=wrap;html=1;fillColor=#1ba1e2;fontColor=#ffffff;strokeColor=#006EAF;arrowWidth=0.36666259765623294;arrowSize=0.5444432576497396;" vertex="1" parent="1">
          <mxGeometry x="329" y="184" width="20" height="30" as="geometry" />
        </mxCell>
        <mxCell id="JlN7DXZQlxJKehoTxWIZ-70" value="" style="shape=singleArrow;direction=south;whiteSpace=wrap;html=1;fillColor=#1ba1e2;fontColor=#ffffff;strokeColor=#006EAF;arrowWidth=0.36666259765623294;arrowSize=0.5444432576497396;" vertex="1" parent="1">
          <mxGeometry x="572.13" y="184" width="20" height="30" as="geometry" />
        </mxCell>
        <mxCell id="JlN7DXZQlxJKehoTxWIZ-71" value="" style="shape=singleArrow;direction=south;whiteSpace=wrap;html=1;fillColor=#1ba1e2;fontColor=#ffffff;strokeColor=#006EAF;arrowWidth=0.36666259765623294;arrowSize=0.5444432576497396;" vertex="1" parent="1">
          <mxGeometry x="326.87" y="384" width="20" height="30" as="geometry" />
        </mxCell>
        <mxCell id="JlN7DXZQlxJKehoTxWIZ-72" value="" style="shape=singleArrow;direction=south;whiteSpace=wrap;html=1;fillColor=#1ba1e2;fontColor=#ffffff;strokeColor=#006EAF;arrowWidth=0.36666259765623294;arrowSize=0.5444432576497396;" vertex="1" parent="1">
          <mxGeometry x="570" y="384" width="20" height="30" as="geometry" />
        </mxCell>
        <mxCell id="JlN7DXZQlxJKehoTxWIZ-73" value="" style="shape=singleArrow;direction=south;whiteSpace=wrap;html=1;fillColor=#1ba1e2;fontColor=#ffffff;strokeColor=#006EAF;arrowWidth=0.36666259765623294;arrowSize=0.5444432576497396;" vertex="1" parent="1">
          <mxGeometry x="326.87" y="583" width="20" height="30" as="geometry" />
        </mxCell>
        <mxCell id="JlN7DXZQlxJKehoTxWIZ-74" value="" style="shape=singleArrow;direction=south;whiteSpace=wrap;html=1;fillColor=#1ba1e2;fontColor=#ffffff;strokeColor=#006EAF;arrowWidth=0.36666259765623294;arrowSize=0.5444432576497396;" vertex="1" parent="1">
          <mxGeometry x="570" y="583" width="20" height="30" as="geometry" />
        </mxCell>
        <mxCell id="JlN7DXZQlxJKehoTxWIZ-75" value="" style="shape=doubleArrow;whiteSpace=wrap;html=1;arrowWidth=0.36666463216145645;arrowSize=0.25555419921874434;fillColor=#1ba1e2;fontColor=#ffffff;strokeColor=#006EAF;" vertex="1" parent="1">
          <mxGeometry x="445" y="290" width="30" height="20" as="geometry" />
        </mxCell>
        <mxCell id="JlN7DXZQlxJKehoTxWIZ-76" value="" style="shape=doubleArrow;whiteSpace=wrap;html=1;arrowWidth=0.36666463216145645;arrowSize=0.25555419921874434;fillColor=#1ba1e2;fontColor=#ffffff;strokeColor=#006EAF;" vertex="1" parent="1">
          <mxGeometry x="445" y="479" width="30" height="20" as="geometry" />
        </mxCell>
        <mxCell id="JlN7DXZQlxJKehoTxWIZ-77" value="" style="shape=doubleArrow;whiteSpace=wrap;html=1;arrowWidth=0.36666463216145645;arrowSize=0.25555419921874434;fillColor=#1ba1e2;fontColor=#ffffff;strokeColor=#006EAF;" vertex="1" parent="1">
          <mxGeometry x="445" y="689" width="30" height="20" as="geometry" />
        </mxCell>
        <mxCell id="JlN7DXZQlxJKehoTxWIZ-78" value="&lt;div style=&quot;font-size: 16px;&quot;&gt;&lt;font style=&quot;font-size: 16px;&quot; color=&quot;#333333&quot;&gt;&lt;br&gt;&lt;/font&gt;&lt;/div&gt;&lt;font style=&quot;font-size: 16px;&quot; color=&quot;#333333&quot;&gt;&lt;b style=&quot;&quot;&gt;基于学科知识图谱的智慧教学平台&lt;/b&gt;&lt;/font&gt;" style="strokeWidth=1;html=1;shape=mxgraph.flowchart.database;whiteSpace=wrap;fillColor=#34aae5;fontColor=#ffffff;strokeColor=#333333;" vertex="1" parent="1">
          <mxGeometry x="326" y="839" width="259" height="59" as="geometry" />
        </mxCell>
        <mxCell id="JlN7DXZQlxJKehoTxWIZ-79" value="" style="shape=doubleArrow;direction=south;whiteSpace=wrap;html=1;fillColor=#1BA1E2;strokeWidth=1;strokeColor=#4D4D4D;" vertex="1" parent="1">
          <mxGeometry x="445" y="807" width="30" height="28" as="geometry" />
        </mxCell>
        <mxCell id="JlN7DXZQlxJKehoTxWIZ-81" value="反馈" style="text;html=1;align=center;verticalAlign=middle;whiteSpace=wrap;rounded=0;fontStyle=1;fontSize=14;" vertex="1" parent="1">
          <mxGeometry x="385" y="807" width="60" height="30" as="geometry" />
        </mxCell>
        <mxCell id="JlN7DXZQlxJKehoTxWIZ-82" value="调整" style="text;html=1;align=center;verticalAlign=middle;whiteSpace=wrap;rounded=0;fontStyle=1;fontSize=14;" vertex="1" parent="1">
          <mxGeometry x="477" y="807" width="60" height="30" as="geometry" />
        </mxCell>
      </root>
    </mxGraphModel>
  </diagram>
</mxfile>
